<svg width="378" height="231" viewBox="0 0 378 231" fill="none" xmlns="http://www.w3.org/2000/svg">
<path d="M34.9555 111.51C33.1392 111.532 31.6104 111.114 30.3692 110.255C29.0239 109.337 28.1755 108.07 27.824 106.452C26.9937 102.515 28.6005 100.695 32.6444 100.991C33.4968 101.031 33.9429 100.624 33.9828 99.772L34.7227 83.9493L34.3157 84.0904C30.4126 85.3495 28.0979 84.0399 27.3716 80.1618C26.6836 76.6057 28.0415 74.4001 31.4452 73.5448C31.6607 73.5015 31.9587 73.4087 32.3391 73.2663C33.6352 72.9531 34.6091 72.6783 35.2608 72.4419L35.7952 61.0144L33.3179 60.8985C29.8018 60.7341 28.1272 58.8671 28.2941 55.2977C28.4585 51.7816 30.2988 50.1057 33.815 50.2701L36.2923 50.386L36.7295 41.0362C36.8914 37.5733 38.7305 35.9241 42.2466 36.0885C45.7095 36.2504 47.36 38.0629 47.1981 41.5257L46.7608 50.8755L51.7953 51.1109L56.1391 48.9915C57.2877 48.4046 58.3874 48.2958 59.4379 48.6653C60.491 48.9815 61.3122 49.6873 61.9017 50.7827C62.3413 51.6575 62.7797 52.559 63.2168 53.4871L63.6914 43.3382C63.8558 39.822 65.6961 38.1461 69.2123 38.3106C72.7284 38.475 74.4043 40.3153 74.2399 43.8315L73.6718 55.9782L72.8572 73.3991C72.4685 81.7101 71.4645 88.3371 69.8452 93.2801C67.6691 99.8523 64.0612 105.076 59.0213 108.952C55.4463 111.187 52.567 111.106 50.3833 108.708C47.387 105.418 48.2303 102.227 52.9132 99.1356C56.2567 96.1418 58.6495 92.3562 60.0915 87.7785C59.0927 88.5861 58.3182 89.1639 57.768 89.5119C54.447 92.0261 51.8552 91.5045 49.9926 87.947C49.1134 86.1973 48.7774 84.8201 48.9845 83.8154C49.25 82.7065 50.2042 81.71 51.8473 80.8258C54.426 79.3447 57.4471 77.5371 60.9105 75.4033C61.4607 75.0553 61.8565 75.1539 62.098 75.6991L62.1667 75.9425C62.2165 74.877 62.2651 73.8382 62.3124 72.8259L62.6637 65.3141L60.1953 66.7204C58.8286 67.4039 57.9329 67.1485 57.5082 65.954C56.4224 62.9133 54.765 58.9649 52.5361 54.1088L52.3455 58.1844C52.2957 59.2499 51.9083 60.1127 51.1833 60.7729C50.5141 61.3823 49.6468 61.6621 48.5813 61.6123L46.2638 61.5039L45.9013 69.2554L46.0649 69.183C49.6433 68.0155 51.717 69.3405 52.286 73.1579C52.7833 76.2245 51.594 78.2512 48.7181 79.2379C48.3377 79.3803 47.7671 79.5939 47.0063 79.8786C46.3012 80.1126 45.7585 80.3008 45.3781 80.4432L44.4513 100.262C44.3293 102.872 43.9949 104.885 43.4481 106.301C42.8406 107.875 41.8776 109.058 40.5592 109.85C39.1292 110.744 37.2613 111.298 34.9555 111.51ZM84.5201 113.428C80.5244 113.241 77.8826 112.076 76.5946 109.934C75.3066 107.791 74.7984 103.816 75.07 98.0094L76.4564 68.3618L77.5925 44.0683C77.7594 40.4989 79.6542 38.7989 83.2769 38.9683C86.8463 39.1352 88.5476 41.0034 88.3807 44.5728L87.6931 59.2768C88.2224 58.2337 88.9909 56.6412 89.9988 54.4992C90.181 54.0272 90.3316 53.6605 90.4506 53.3992C91.2404 51.3538 92.2071 50.0909 93.3508 49.6105C94.4945 49.1301 96.0016 49.4408 97.8722 50.5427C100.991 52.3437 101.453 55.0349 99.2565 58.6162C97.2857 61.9411 95.838 64.3561 94.9134 65.8612C94.1685 66.9476 93.1771 67.5953 91.9393 67.8044C90.7016 68.0135 89.4596 67.7418 88.2133 66.9895L87.3567 66.4689L86.9643 74.8597L88.5537 73.4124C89.3902 72.6506 90.1918 72.6347 90.9585 73.3647C94.4826 76.7864 97.6058 80.216 100.328 83.6536C101.179 84.868 101.528 85.9788 101.374 86.9861C101.169 87.9375 100.505 89.001 99.3824 90.1765C97.8692 91.7075 96.552 92.4735 95.4308 92.4744C94.2029 92.4704 93.015 91.614 91.8669 89.9052C90.0611 87.4181 88.2961 85.1999 86.572 83.2506L85.8544 98.5938C85.7598 100.618 85.7799 101.901 85.9148 102.441C86.0522 102.928 86.4672 103.187 87.1598 103.22L90.1965 103.362C90.5694 103.379 90.8445 103.205 91.0217 102.84C92.0033 96.6923 94.3697 94.6139 98.1208 96.6046C99.4227 97.3062 100.242 98.6259 100.578 100.564C100.823 102.177 100.741 103.935 100.332 105.838C99.5023 108.736 98.3117 110.789 96.7602 111.998C95.2062 113.26 93.1773 113.832 90.6733 113.715L84.5201 113.428Z" fill="white"/>
<path d="M180.913 124.482C177.285 130.651 173.599 133.198 169.855 132.123C165.622 130.811 162.927 127.06 161.769 120.868C159.365 122.286 157.029 123.446 154.758 124.348C153.176 124.932 151.522 124.725 149.795 123.73C148.263 122.839 146.991 121.575 145.981 119.938C145.368 118.898 145.11 117.978 145.206 117.177C145.329 116.272 145.948 115.688 147.062 115.424L134.822 112.269L133.564 117.149C132.659 120.661 130.45 121.965 126.938 121.059C123.375 120.141 122.046 117.925 122.951 114.413L124.209 109.533L113.209 106.697C109.955 105.858 108.755 103.786 109.607 100.481C110.446 97.2274 112.492 96.02 115.745 96.8588L126.746 99.6947L127.505 96.7509L119.603 94.7139C118.105 94.3278 117.011 93.5501 116.322 92.3808C115.632 91.2116 115.48 89.8781 115.866 88.3804L120.819 69.1685C121.205 67.6708 121.982 66.577 123.152 65.8871C124.321 65.1971 125.654 65.0452 127.152 65.4313L140.631 68.9062L154.188 72.4012C155.686 72.7873 156.78 73.5649 157.47 74.7342C158.159 75.9035 158.311 77.2369 157.925 78.7346L152.973 97.9465C152.586 99.4442 151.809 100.538 150.639 101.228C149.47 101.918 148.137 102.07 146.639 101.684L138.118 99.4869L137.359 102.431L147.584 105.067C149.082 105.453 150.176 106.231 150.866 107.4C151.556 108.569 151.708 109.903 151.322 111.4L150.583 114.267C154.306 112.858 157.773 111.053 160.984 108.852C161.196 102.903 162.085 95.3938 163.652 86.3245L163.497 86.2846C159.917 85.8573 158.373 83.8345 158.865 80.2162C159.371 76.5462 161.4 74.9764 164.954 75.507L165.671 75.6092C166.33 72.1991 167.468 66.9297 169.085 59.8011C169.927 56.1077 172.104 54.7137 175.616 55.619C179.024 56.4978 180.314 58.758 179.486 62.3998C178.246 67.4226 177.156 72.2913 176.216 77.0059L186.916 78.4426C190.483 78.9215 192.027 80.9443 191.548 84.511C191.069 88.0777 189.046 89.6216 185.479 89.1427L180.749 88.5842L184.391 92.084C185.405 93.0616 185.973 94.1718 186.093 95.4145C186.265 96.6705 185.959 97.8583 185.175 98.978C181.423 104.345 176.963 109.253 171.795 113.704C171.98 116.616 172.525 118.243 173.428 118.586C173.686 118.653 173.9 118.57 174.07 118.339C176.714 112.356 179.425 111.238 182.205 114.983C182.897 115.933 183.021 117.479 182.578 119.624C182.256 121.303 181.701 122.922 180.913 124.482ZM126.813 87.8979L130.299 88.7966L130.998 86.0853L128.674 85.4861L126.427 84.907L126.008 86.5338C125.821 87.2568 126.09 87.7115 126.813 87.8979ZM139.517 91.1731L141.841 91.7723L143.313 92.1517C143.933 92.3115 144.323 92.0815 144.483 91.4618L144.942 89.68L140.216 88.4618L139.517 91.1731ZM172.641 98.8861C174.231 97.2032 175.628 95.5254 176.83 93.8526C178.135 92.2064 179.339 90.4236 180.439 88.5043L174.275 87.7412C173.546 91.8494 173.001 95.5643 172.641 98.8861ZM128.384 77.3152L132.955 78.4935L133.654 75.7821L131.33 75.183L129.936 74.8235C129.367 74.6771 129.01 74.8879 128.864 75.456L128.384 77.3152ZM142.174 80.87L144.498 81.4691L146.899 82.0882L147.318 80.4614C147.505 79.7384 147.236 79.2837 146.513 79.0973L142.873 78.1587L142.174 80.87ZM126.957 62.985C125.459 62.5989 124.365 61.8212 123.675 60.652C122.985 59.4827 122.833 58.1492 123.219 56.6516L125.077 49.4471C125.463 47.9494 126.24 46.8556 127.41 46.1656C128.579 45.4757 129.912 45.3238 131.41 45.7099L135.361 46.7284L140.164 47.9666C141.455 48.2994 142.388 48.953 142.963 49.9274C143.538 50.9018 143.659 52.0346 143.326 53.3257L141.269 61.3048C140.883 62.8025 140.105 63.8963 138.936 64.5863C137.767 65.2762 136.433 65.4281 134.936 65.042L126.957 62.985ZM147.33 68.2374C145.833 67.8513 144.739 67.0736 144.049 65.9044C143.359 64.7351 143.207 63.4016 143.593 61.9039L145.45 54.6995C145.837 53.2018 146.614 52.108 147.783 51.418C148.953 50.728 150.286 50.5761 151.784 50.9622L155.735 51.9807L160.538 53.2189C161.829 53.5518 162.762 54.2054 163.337 55.1798C163.912 56.1542 164.033 57.2869 163.7 58.578L161.643 66.5572C161.257 68.0549 160.479 69.1487 159.31 69.8386C158.141 70.5286 156.807 70.6805 155.309 70.2944L147.33 68.2374ZM189.457 75.9582C185.582 76.887 183.459 75.4033 183.086 71.5069C183.075 71.3387 183.024 71.1055 182.936 70.8073C182.913 70.4708 182.889 70.2442 182.864 70.1276C182.563 68.7284 182.331 67.7048 182.168 67.0568C181.313 63.752 182.582 61.711 185.977 60.9339C188.957 60.2701 190.902 61.3774 191.813 64.2558C192.505 66.9126 193.012 69.1089 193.336 70.8447C193.506 72.3206 193.272 73.4443 192.632 74.2157C192.044 75.0005 190.986 75.5813 189.457 75.9582ZM131.988 56.9292L132.762 57.1289C133.382 57.2887 133.772 57.0587 133.931 56.439L134.311 54.9671C134.511 54.1924 134.223 53.7053 133.448 53.5055L133.216 53.4456C132.596 53.2859 132.207 53.5158 132.047 54.1356L131.827 54.9877L131.528 56.1497C131.421 56.5629 131.574 56.8227 131.988 56.9292ZM152.361 62.1816L153.214 62.4013C153.833 62.5611 154.223 62.3311 154.383 61.7113L154.742 60.3169C154.955 59.4906 154.649 58.9709 153.822 58.7579L153.59 58.698C152.97 58.5382 152.58 58.7682 152.421 59.388L152.201 60.2401L151.901 61.4021C151.795 61.8153 151.948 62.0751 152.361 62.1816Z" fill="white"/>
<path d="M215.502 146.888C211.573 148.103 209.027 147.116 207.864 143.927C206.459 140.142 208.351 137.329 213.54 135.486C217.795 133.005 221.349 128.87 224.202 123.082L225.086 121.288C226.594 118.226 228.904 117.461 232.013 118.994C235.075 120.502 235.851 122.788 234.343 125.849L233.282 128.002C230.712 133.217 227.945 137.323 224.981 140.322C222.183 143.224 219.023 145.413 215.502 146.888ZM200.633 137.063C197.07 139.588 194.275 138.925 192.25 135.072C191.285 133.289 190.943 131.753 191.221 130.463C191.5 129.173 192.471 127.987 194.135 126.904C196.131 125.629 198.329 124.185 200.728 122.573C202.725 121.297 205.231 119.53 208.247 117.27C211.785 114.555 214.449 115.243 216.237 119.335C217.542 122.237 216.972 124.662 214.526 126.608C209.564 130.524 204.933 134.009 200.633 137.063ZM241.5 163.446C239.204 162.315 237.776 160.749 237.216 158.748C236.923 157.653 236.893 156.508 237.124 155.314C237.45 153.929 238.226 151.992 239.452 149.505L247.798 132.57C248.482 131.182 249.466 130.27 250.752 129.834C252.037 129.397 253.374 129.52 254.761 130.204L259.354 132.467C259.37 131.108 259.338 129.844 259.26 128.675C247.592 123.758 237.239 119.309 228.2 115.33C226.645 114.624 225.71 113.747 225.394 112.699C225.102 111.723 225.285 110.386 225.943 108.689C227.235 105.223 229.603 104.279 233.047 105.857L235.952 107.2C238.444 105.039 240.39 103.263 241.789 101.871L235.618 98.83C232.556 97.3211 231.792 95.0119 233.324 91.9023C234.833 88.8406 237.118 88.0642 240.18 89.573L252.02 95.4081L253.505 92.3942C255.226 88.9019 257.857 88.0281 261.397 89.7727C264.889 91.4937 265.775 94.1004 264.054 97.5927L262.569 100.607L271.467 104.992L275.772 107.114C278.834 108.622 279.611 110.908 278.102 113.969C276.569 117.079 274.272 117.879 271.21 116.37L266.618 114.107C268.391 119.678 269.517 124.693 269.996 129.15C270.101 130.748 269.13 131.993 267.084 132.888C265.49 133.589 263.572 133.981 261.331 134.066C260.854 134.069 260.424 133.976 260.041 133.787C259.61 133.575 259.394 133.23 259.391 132.753L248.853 154.138C248.334 155.19 248.075 155.835 248.077 156.074C248.054 156.36 248.163 156.562 248.402 156.68L249.048 156.999C249.287 157.116 249.526 157.115 249.763 156.994C249.954 156.97 250.392 156.442 251.078 155.413C251.172 155.221 251.267 155.03 251.361 154.839C252.447 152.876 253.478 151.75 254.454 151.458C255.525 151.094 256.626 151.755 257.757 153.442C258.96 155.224 258.889 157.3 257.543 159.669C256.219 161.751 255.166 163.224 254.384 164.088C252.985 165.479 251.546 166.227 250.068 166.331C248.662 166.53 247.074 166.193 245.303 165.321L241.5 163.446ZM228.568 154.398C225.554 152.912 224.778 150.687 226.24 147.721L236.177 127.556C237.639 124.59 239.877 123.85 242.89 125.335C245.857 126.797 246.609 129.011 245.147 131.977L240.161 142.095L235.21 152.141C233.748 155.107 231.534 155.859 228.568 154.398ZM218.559 106.299C214.874 108.347 212.091 107.6 210.21 104.057C209.921 103.558 209.38 102.786 208.587 101.741C208.25 101.218 207.997 100.826 207.829 100.564C206.555 98.926 206.046 97.4263 206.3 96.0652C206.555 94.7042 207.573 93.5415 209.357 92.5772C211.972 91.131 214.228 91.44 216.124 93.5042C216.772 94.2398 217.721 95.3912 218.97 96.9582C219.523 97.6467 220.064 98.3591 220.593 99.0955C222.4 102.186 221.722 104.587 218.559 106.299ZM246.642 112.111L257.261 116.988C257.212 116.725 257.102 116.344 256.932 115.845C256.834 115.32 256.748 114.951 256.675 114.737C256.287 113.594 256.713 113.031 257.954 113.048L264.106 112.869L253.342 107.565C252.986 107.805 252.416 108.178 251.632 108.684C250.895 109.213 250.337 109.622 249.957 109.91C249.386 110.223 248.555 110.765 247.462 111.534C247.106 111.775 246.832 111.967 246.642 112.111ZM227.302 90.005C226.06 89.6306 224.956 88.4921 223.991 86.5895C223.22 85.2582 222.45 84.1059 221.681 83.1324C220.456 81.5175 219.97 80.0296 220.225 78.6686C220.479 77.3075 221.486 76.1688 223.246 75.2523C225.838 73.8539 228.082 74.1868 229.978 76.251C231.227 77.818 232.14 78.9815 232.717 79.7414C233.438 80.6913 233.943 81.4159 234.232 81.9151C236.015 84.934 235.325 87.2993 232.162 89.011C230.236 90.0239 228.616 90.3552 227.302 90.005Z" fill="white"/>
<path d="M269.599 183.044C266.658 180.745 266.337 178.125 268.636 175.183L280.411 160.119C278.275 161.293 276.416 162.243 274.833 162.969C272.103 163.949 270.297 164.094 269.415 163.405C268.449 162.649 268.291 160.902 268.944 158.162C269.317 156.559 269.891 155.348 270.664 154.532C271.471 153.673 272.663 153.014 274.24 152.555C279.029 151.018 284.403 148.517 290.361 145.051L287.462 142.785C284.647 140.584 284.356 138.055 286.589 135.198C288.79 132.382 291.298 132.075 294.113 134.276L298.147 137.429L302.778 131.504C301.152 130.639 299.929 129.954 299.107 129.446C296.566 127.934 295.743 125.869 296.638 123.252C297.74 119.849 300.002 119.078 303.421 120.939C309.009 123.749 313.922 125.864 318.162 127.282C319.657 127.707 320.711 128.395 321.321 129.346C321.922 130.222 322.249 131.493 322.301 133.158C322.496 137.845 320.385 139.377 315.968 137.752C315.851 137.729 315.671 137.656 315.428 137.534C314.358 137.171 313.559 136.851 313.031 136.574L306.971 144.326L308.736 145.706C311.551 147.906 311.859 150.414 309.658 153.23C307.425 156.087 304.9 156.415 302.085 154.215L300.32 152.835L299.729 153.592C300.168 155.627 300.56 158.98 300.904 163.649C301.055 165.188 300.797 166.341 300.131 167.106C299.573 167.821 298.505 168.407 296.927 168.867C294.653 169.525 293.123 169.447 292.339 168.631C291.555 167.815 291.407 166.143 291.895 163.613L282.929 175.085L277.46 182.081C275.161 185.022 272.541 185.343 269.599 183.044ZM284.465 192.735C281.817 190.666 281.528 188.307 283.598 185.66C285.667 183.013 288.025 182.724 290.672 184.793L300.127 192.183L303.526 187.834L296.845 182.612C294.324 180.641 294.065 178.374 296.069 175.811C298.039 173.29 300.285 173.015 302.807 174.985L309.488 180.208L312.493 176.363C309.967 174.659 307.536 172.962 305.201 171.272C303.025 169.639 302.399 167.626 303.321 165.234C304.526 162.046 306.745 161.546 309.977 163.734C318.429 169.461 326.04 174.057 332.81 177.52C333.941 178.066 334.732 178.786 335.183 179.68C335.584 180.467 335.792 181.543 335.807 182.909C335.768 187.549 333.767 188.897 329.805 186.95C327.283 185.588 324.746 184.113 322.196 182.526L318.501 187.253L325.056 192.377C327.577 194.347 327.852 196.593 325.882 199.115C323.878 201.678 321.616 201.974 319.095 200.003L312.54 194.879L309.14 199.228L317.838 206.027C320.485 208.097 320.774 210.455 318.705 213.102C316.636 215.749 314.278 216.038 311.63 213.969L298.016 203.327L284.465 192.735ZM313.966 161.877C312.748 160.925 312.056 159.775 311.891 158.427C311.726 157.08 312.119 155.797 313.072 154.578L324.403 140.081C325.356 138.863 326.506 138.171 327.853 138.006C329.201 137.841 330.484 138.234 331.703 139.187L342.418 147.562L353.133 155.938C354.351 156.89 355.043 158.04 355.208 159.388C355.373 160.735 354.98 162.018 354.027 163.237L342.696 177.734C341.743 178.952 340.593 179.644 339.246 179.809C337.898 179.974 336.615 179.581 335.396 178.628L313.966 161.877ZM325.726 158.783L330.391 162.429L335.118 166.124C336.126 166.913 337.025 166.802 337.813 165.794L341.262 161.382C342.05 160.373 341.94 159.475 340.931 158.687L331.54 151.346C330.532 150.558 329.633 150.668 328.845 151.676L325.396 156.088C324.608 157.097 324.718 157.995 325.726 158.783Z" fill="white"/>
</svg>
