<svg width="94" height="116" viewBox="0 0 94 116" fill="none" xmlns="http://www.w3.org/2000/svg">
<path d="M77.7349 49.111C82.2628 47.9132 86.2532 45.2206 89.0586 41.47C91.8639 37.7195 93.3197 33.131 93.1898 28.4492C93.0599 23.7673 91.3518 19.2667 88.3427 15.6775C85.3336 12.0884 81.2 9.62124 76.6126 8.67641L40.1914 1.166C35.6045 0.21899 30.8322 0.849636 26.6487 2.95562C22.4652 5.0616 19.116 8.51935 17.1445 12.7679C15.173 17.0164 14.6949 21.8064 15.7877 26.3608C16.8805 30.9152 19.4802 34.9668 23.1648 37.8581C19.4294 38.8454 16.0434 40.8551 13.3876 43.6612C10.7318 46.4674 8.91135 49.9588 8.13107 53.7429C7.35078 57.527 7.64154 61.4537 8.97066 65.0816C10.2998 68.7095 12.6146 71.8947 15.6548 74.2791C12.0768 75.2271 8.81707 77.1136 6.21258 79.7436C3.60809 82.3736 1.75342 85.6516 0.840365 89.2386C-0.0726939 92.8256 -0.0109986 96.5914 1.01908 100.147C2.04915 103.702 4.01021 106.917 6.69945 109.46C9.3887 112.004 12.7085 113.782 16.3156 114.613C19.9226 115.443 23.686 115.295 27.2165 114.183C30.747 113.071 33.9165 111.037 36.3972 108.29C38.8779 105.543 40.5798 102.183 41.3268 98.5576L46.2657 74.6068C47.6409 77.4086 49.6297 79.8646 52.0845 81.7921C54.5393 83.7197 57.3969 85.0693 60.4449 85.7407C63.493 86.4121 66.6531 86.388 69.6906 85.6702C72.728 84.9524 75.5647 83.5593 77.9898 81.5946C80.4149 79.6298 82.3661 77.1438 83.6983 74.3213C85.0306 71.4989 85.7098 68.4124 85.6853 65.2914C85.6608 62.1704 84.9333 59.095 83.5569 56.2938C82.1805 53.4925 80.1906 51.0375 77.7349 49.111ZM88.4838 32.3428C87.6009 36.6001 85.066 40.3336 81.4349 42.7249C77.8037 45.1161 73.3725 45.9701 69.1127 45.0995L69.1023 45.0971L69.0816 45.0933L53.0342 41.7837L59.6609 9.64784L75.7291 12.9613C79.9881 13.8446 83.7229 16.3812 86.1141 20.0147C88.5052 23.6482 89.3575 28.0818 88.4838 32.3428ZM55.7484 46.8105C54.1889 47.5789 52.7312 48.5383 51.4086 49.6666L52.1506 46.0686L55.7484 46.8105ZM19.9263 18.2056C20.8096 13.9465 23.3462 10.2117 26.9797 7.8206C30.6132 5.42945 35.0468 4.5772 39.3079 5.45084L55.376 8.76426L48.7493 40.9001L32.6811 37.5867L32.6709 37.5848C28.4142 36.6992 24.6823 34.162 22.2933 30.5293C19.9042 26.8966 19.053 22.4649 19.9263 18.2056ZM17.6604 110.429C15.5489 109.995 13.5435 109.149 11.7589 107.94C9.97429 106.731 8.44543 105.183 7.25971 103.382C6.07398 101.582 5.25464 99.566 4.8485 97.449C4.44237 95.332 4.4574 93.1557 4.89274 91.0446C5.32809 88.9334 6.17521 86.9287 7.38569 85.1451C8.59617 83.3615 10.1463 81.8339 11.9474 80.6496C13.7486 79.4654 15.7654 78.6477 17.8827 78.2432C20.0001 77.8388 22.1763 77.8556 24.2871 78.2927L40.3554 81.6057L37.042 97.674C36.1587 101.933 33.622 105.668 29.9885 108.059C26.355 110.45 21.9214 111.302 17.6604 110.429ZM41.239 77.3207L25.1707 74.0079C20.9107 73.1287 17.1742 70.5937 14.7827 66.9603C12.3912 63.3269 11.5405 58.8925 12.4177 54.6321C13.2948 50.3716 15.828 46.6339 19.4602 44.2407C23.0925 41.8474 27.5265 40.9946 31.7873 41.8697L31.7974 41.872L47.8657 45.185L41.239 77.3207ZM61.5919 81.5183C57.3334 80.6387 53.5982 78.1045 51.2072 74.4725C48.8162 70.8404 47.9649 66.4077 48.8403 62.1484C49.7158 57.889 52.2464 54.1514 55.8762 51.7569C59.5059 49.3624 63.9378 48.5068 68.198 49.3782L68.2186 49.3825L68.2289 49.3843C72.4866 50.2679 76.2194 52.8057 78.607 56.4401C80.9946 60.0744 81.8417 64.508 80.9622 68.7666C80.0826 73.0252 77.5483 76.7604 73.9162 79.1515C70.2841 81.5425 65.8513 82.3938 61.5919 81.5183Z" fill="black"/>
</svg>
