<svg width="191" height="149" viewBox="0 0 191 149" fill="none" xmlns="http://www.w3.org/2000/svg">
<path d="M95.3791 70.1888C119.859 73.1987 142.463 72.6554 159.23 69.318C167.608 67.6504 174.587 65.2741 179.621 62.2529C184.642 59.2399 187.885 55.4845 188.43 51.0187C188.976 46.553 186.733 42.1231 182.586 37.9828C178.427 33.8315 172.228 29.8349 164.499 26.1869C149.031 18.8861 127.227 12.883 102.747 9.87311C78.2667 6.86326 55.6634 7.40649 38.896 10.7439C30.5178 12.4116 23.5394 14.7879 18.5051 17.809C13.4842 20.822 10.2413 24.5775 9.69579 29.0432C9.15028 33.5089 11.3933 37.9388 15.5404 42.0791C19.6986 46.2305 25.8984 50.227 33.6273 53.875C49.0952 61.1758 70.8989 67.179 95.3791 70.1888Z" stroke="black" stroke-width="2"/>
<path d="M91.8161 103.995C116.296 107.005 138.9 106.462 155.667 103.124C164.045 101.457 171.024 99.0802 176.058 96.0591C181.079 93.046 184.322 89.2906 184.867 84.8249C185.413 80.3591 183.17 75.9292 179.023 71.789C174.864 67.6376 168.665 63.641 160.936 59.993C145.468 52.6922 123.664 46.6891 99.1839 43.6793C74.7038 40.6694 52.1004 41.2126 35.333 44.5501C26.9548 46.2177 19.9764 48.594 14.9421 51.6152C9.92122 54.6282 6.67831 58.3836 6.1328 62.8493C5.58729 67.3151 7.83032 71.745 11.9774 75.8852C16.1356 80.0366 22.3355 84.0332 30.0643 87.6812C45.5322 94.982 67.3359 100.985 91.8161 103.995Z" stroke="black" stroke-width="2"/>
<path d="M88.2536 139.127C112.734 142.137 135.337 141.593 152.105 138.256C160.483 136.588 167.461 134.212 172.495 131.191C177.516 128.178 180.759 124.422 181.305 119.957C181.85 115.491 179.607 111.061 175.46 106.921C171.302 102.769 165.102 98.7729 157.373 95.1249C141.905 87.8241 120.102 81.821 95.6214 78.8111C71.1413 75.8012 48.5379 76.3445 31.7705 79.6819C23.3923 81.3495 16.4139 83.7259 11.3796 86.747C6.35872 89.76 3.11581 93.5154 2.5703 97.9812C2.02479 102.447 4.26782 106.877 8.41488 111.017C12.5731 115.168 18.773 119.165 26.5018 122.813C41.9697 130.114 63.7734 136.117 88.2536 139.127Z" stroke="black" stroke-width="2"/>
</svg>
