<svg width="135" height="137" viewBox="0 0 135 137" fill="none" xmlns="http://www.w3.org/2000/svg">
<path d="M93.2701 48.2999C91.9574 47.4663 91.1255 46.3602 90.7744 44.9815C90.4162 43.6706 90.6384 42.385 91.4408 41.1248C92.2268 39.8902 93.2901 39.1569 94.6308 38.9247C95.9878 38.6667 97.3355 38.9627 98.674 39.8126C100.012 40.6625 100.852 41.7557 101.194 43.0924C101.552 44.4033 101.338 45.676 100.552 46.9105C99.7664 48.145 98.6867 48.9041 97.3133 49.1878C95.9562 49.4457 94.6085 49.1497 93.2701 48.2999ZM99.9442 37.477C99.0176 36.8886 98.566 36.1503 98.5893 35.2622C98.6055 34.4418 99.0196 33.6212 99.8314 32.8004C100.994 32.1663 102.91 31.7397 105.58 31.5207C107.059 31.4122 108.101 31.2795 108.707 31.1226C109.708 30.8555 110.414 30.4005 110.823 29.7575C111.478 28.7287 111.566 27.6828 111.086 26.6197C110.651 25.6571 109.764 24.7508 108.426 23.9009C107.216 23.1328 105.866 22.7269 104.375 22.6835C102.241 23.026 100.895 22.189 100.335 20.1724C99.8368 18.2305 100.535 17.0486 102.43 16.6268C106.16 16.1056 109.607 16.8501 112.773 18.8604C115.785 20.7727 117.769 22.9357 118.726 25.3493C119.782 28.006 119.466 30.6589 117.78 33.308C116.994 34.5425 115.878 35.3869 114.432 35.8412C113.566 36.1222 112.166 36.3346 110.231 36.4784C108.287 36.5801 106.865 36.7972 105.967 37.1296C104.037 38.685 102.029 38.8008 99.9442 37.477Z" fill="#4E7B57"/>
<ellipse rx="47.3603" ry="18.3424" transform="matrix(0.978513 -0.206187 0.211116 0.977461 81.4499 104.626)" fill="#CCCCCC"/>
<ellipse rx="34.642" ry="34.4042" transform="matrix(0.957355 0.288915 -0.295516 0.955338 59.9943 94.1238)" fill="#D2C67A"/>
<ellipse rx="1.74053" ry="1.72279" transform="matrix(0.957355 0.288915 -0.295515 0.955338 43.1796 86.7477)" fill="white"/>
<ellipse rx="1.74053" ry="1.72279" transform="matrix(0.957355 0.288915 -0.295515 0.955338 53.6313 87.3598)" fill="white"/>
<path d="M43.6743 96.317C47.7166 99.9362 51.2343 97.3988 51.2343 97.3988" stroke="white" stroke-width="1.14337" stroke-linecap="round"/>
<path d="M13.3747 65.5738L13.7588 72.2472L19.1241 76.2928L12.3858 76.6858L8.29118 82.0076L7.90705 75.3342L2.54175 71.2886L9.28006 70.8956L13.3747 65.5738Z" fill="#D2C67A"/>
<path d="M37.0879 43.8827C35.5377 44.0042 34.2076 43.6191 33.0977 42.7275C32.0229 41.8942 31.427 40.7329 31.3099 39.2435C31.1953 37.7845 31.6036 36.5597 32.5351 35.5692C33.4641 34.5483 34.7189 33.9759 36.2995 33.852C37.8801 33.7281 39.209 34.098 40.2862 34.9617C41.3609 35.7949 41.9556 36.9411 42.0703 38.4001C42.185 39.8591 41.779 41.1142 40.8523 42.1655C39.9233 43.1864 38.6685 43.7588 37.0879 43.8827ZM35.9093 31.2219C34.815 31.3076 34.0101 30.9884 33.4944 30.2643C33.0139 29.5985 32.851 28.6938 33.0058 27.5501C33.5534 26.345 34.8277 24.8536 36.8288 23.0758C37.945 22.1014 38.698 21.3696 39.0877 20.8803C39.7271 20.0656 40.0169 19.2783 39.9572 18.5184C39.8616 17.3025 39.3024 16.4136 38.2796 15.8515C37.3527 15.3431 36.0989 15.1508 34.5183 15.2747C33.0897 15.3867 31.7669 15.8726 30.55 16.7326C29.0512 18.2875 27.4718 18.4266 25.8117 17.1499C24.2452 15.8964 24.0921 14.5322 25.3524 13.0571C28.0186 10.4015 31.221 8.92715 34.9598 8.6341C38.5162 8.35534 41.4028 8.89367 43.6196 10.2491C46.0611 11.7398 47.4049 14.0505 47.651 17.1813C47.7657 18.6403 47.382 19.9855 46.5001 21.2168C45.9775 21.9611 44.9865 22.9716 43.5271 24.2482C42.0349 25.4967 41.0298 26.5236 40.512 27.3287C39.9057 29.7312 38.3714 31.0289 35.9093 31.2219Z" fill="#4E7B57"/>
<path d="M67.7903 43.4317C66.2526 43.2001 65.0441 42.5247 64.1647 41.4056C63.3064 40.3513 62.9887 39.0856 63.2118 37.6083C63.4303 36.1612 64.1054 35.0604 65.2369 34.3058C66.373 33.521 67.7249 33.2467 69.2927 33.4829C70.8605 33.719 72.0713 34.3793 72.9251 35.4637C73.7834 36.518 74.1033 37.7687 73.8848 39.2158C73.6663 40.6629 72.9867 41.7939 71.8461 42.6087C70.71 43.3935 69.3581 43.6678 67.7903 43.4317ZM69.5079 30.8327C68.4225 30.6693 67.7106 30.1766 67.3722 29.3548C67.0548 28.5979 67.1009 27.6798 67.5106 26.6007C68.3167 25.5504 69.8957 24.3853 72.2475 23.1053C73.5553 22.4081 74.4545 21.8652 74.9448 21.4765C75.7521 20.8272 76.2127 20.1258 76.3265 19.3721C76.5086 18.1662 76.1651 17.174 75.2959 16.3956C74.508 15.6911 73.3302 15.2208 71.7624 14.9847C70.3454 14.7712 68.9468 14.946 67.5667 15.509C65.7548 16.6853 64.1847 16.4643 62.8565 14.8459C61.6142 13.2713 61.7739 11.9078 63.3355 10.7555C66.5338 8.77047 69.9871 8.05723 73.6956 8.61574C77.2231 9.14701 79.9132 10.323 81.7659 12.1437C83.8068 14.1469 84.5929 16.7012 84.1239 19.8064C83.9054 21.2535 83.2272 22.4772 82.0894 23.4775C81.4119 24.0847 80.2178 24.8452 78.5071 25.7593C76.7709 26.6386 75.5594 27.412 74.8728 28.0795C73.7383 30.2828 71.95 31.2005 69.5079 30.8327Z" fill="#4E7B57"/>
</svg>
