<svg width="230" height="150" viewBox="0 0 230 150" fill="none" xmlns="http://www.w3.org/2000/svg">
<ellipse rx="82.7364" ry="32.083" transform="matrix(0.978456 -0.206454 0.210843 0.97752 142.281 93.3705)" fill="#CCCCCC"/>
<ellipse rx="60.5215" ry="60.1734" transform="matrix(0.957247 0.289273 -0.295151 0.955451 104.801 75)" fill="#D2C67A"/>
<ellipse rx="3.04079" ry="3.01319" transform="matrix(0.957247 0.289273 -0.295151 0.955451 75.4287 62.0977)" fill="white"/>
<ellipse rx="3.04079" ry="3.01319" transform="matrix(0.957247 0.289273 -0.295151 0.955451 93.6865 63.1684)" fill="white"/>
<path d="M76.2928 78.8363C83.3543 85.1672 89.4992 80.7287 89.4992 80.7287" stroke="white" stroke-width="2" stroke-linecap="round"/>
<path d="M23.3639 25.0597L24.0349 36.733L33.4073 43.8097L21.6364 44.4971L14.4837 53.8061L13.8127 42.1328L4.44031 35.0561L16.2112 34.3687L23.3639 25.0597Z" fill="#D2C67A"/>
</svg>
